<svg id="visual" viewBox="0 0 960 540" width="960" height="540" xmlns="http://www.w3.org/2000/svg" xmlns:xlink="http://www.w3.org/1999/xlink" version="1.1"><rect width="960" height="540" fill="#FFFFFF"></rect><g><g transform="translate(52 210)"><path d="M99.3 -33.3C110 0.7 87.1 44.6 51 71.1C14.8 97.6 -34.7 106.7 -65.5 85.4C-96.2 64.2 -108.3 12.5 -94.3 -26.1C-80.3 -64.7 -40.1 -90.2 2.1 -90.9C44.3 -91.5 88.6 -67.4 99.3 -33.3Z" stroke="#82b7cb" fill="none" stroke-width="20"></path></g><g transform="translate(889 412)"><path d="M67.5 -20.7C76.8 6.8 66.3 41.8 43.6 57.8C21 73.8 -14 70.6 -36.3 53.5C-58.6 36.5 -68.3 5.6 -60.2 -20.3C-52 -46.1 -26 -66.9 1.5 -67.4C29.1 -67.9 58.1 -48.1 67.5 -20.7Z" stroke="#82b7cb" fill="none" stroke-width="20"></path></g><g transform="translate(489 373)"><path d="M53.3 -16.6C61.4 7.8 55.2 37.6 37 50.9C18.8 64.1 -11.5 60.8 -31.5 45.7C-51.6 30.6 -61.5 3.7 -54.5 -19.1C-47.6 -41.8 -23.8 -60.4 -0.6 -60.2C22.5 -60 45.1 -41 53.3 -16.6Z" stroke="#82b7cb" fill="none" stroke-width="20"></path></g></g></svg>